<svg width="800" height="800" viewBox="0 0 800 800" fill="none" xmlns="http://www.w3.org/2000/svg">
<mask id="mask0_150_7" style="mask-type:luminance" maskUnits="userSpaceOnUse" x="0" y="0" width="800" height="800">
<path d="M0 0H800V800H0V0Z" fill="white"/>
</mask>
<g mask="url(#mask0_150_7)">
<path d="M113.333 66.6667C100.957 66.6667 89.0867 71.5833 80.335 80.335C71.5833 89.0867 66.6667 100.957 66.6667 113.333V166.667C66.6667 175.507 63.1548 183.986 56.9036 190.237C50.6523 196.488 42.1739 200 33.3333 200C24.4928 200 16.0143 196.488 9.76311 190.237C3.5119 183.986 0 175.507 0 166.667V113.333C0 83.2755 11.9404 54.4487 33.1946 33.1946C54.4487 11.9404 83.2755 0 113.333 0L166.667 0C175.507 0 183.986 3.5119 190.237 9.76311C196.488 16.0143 200 24.4928 200 33.3333C200 42.1739 196.488 50.6523 190.237 56.9036C183.986 63.1548 175.507 66.6667 166.667 66.6667H113.333ZM600 33.3333C600 24.4928 603.512 16.0143 609.763 9.76311C616.014 3.5119 624.493 0 633.333 0L686.667 0C716.725 0 745.551 11.9404 766.805 33.1946C788.06 54.4487 800 83.2755 800 113.333V166.667C800 175.507 796.488 183.986 790.237 190.237C783.986 196.488 775.507 200 766.667 200C757.826 200 749.348 196.488 743.096 190.237C736.845 183.986 733.333 175.507 733.333 166.667V113.333C733.333 100.957 728.417 89.0867 719.665 80.335C710.913 71.5833 699.043 66.6667 686.667 66.6667H633.333C624.493 66.6667 616.014 63.1548 609.763 56.9036C603.512 50.6523 600 42.1739 600 33.3333ZM33.3333 600C42.1739 600 50.6523 603.512 56.9036 609.763C63.1548 616.014 66.6667 624.493 66.6667 633.333V686.667C66.6667 699.043 71.5833 710.913 80.335 719.665C89.0867 728.417 100.957 733.333 113.333 733.333H166.667C175.507 733.333 183.986 736.845 190.237 743.096C196.488 749.348 200 757.826 200 766.667C200 775.507 196.488 783.986 190.237 790.237C183.986 796.488 175.507 800 166.667 800H113.333C83.2755 800 54.4487 788.06 33.1946 766.805C11.9404 745.551 0 716.725 0 686.667L0 633.333C0 624.493 3.5119 616.014 9.76311 609.763C16.0143 603.512 24.4928 600 33.3333 600ZM766.667 600C775.507 600 783.986 603.512 790.237 609.763C796.488 616.014 800 624.493 800 633.333V686.667C800 716.725 788.06 745.551 766.805 766.805C745.551 788.06 716.725 800 686.667 800H633.333C624.493 800 616.014 796.488 609.763 790.237C603.512 783.986 600 775.507 600 766.667C600 757.826 603.512 749.348 609.763 743.096C616.014 736.845 624.493 733.333 633.333 733.333H686.667C699.043 733.333 710.913 728.417 719.665 719.665C728.417 710.913 733.333 699.043 733.333 686.667V633.333C733.333 624.493 736.845 616.014 743.096 609.763C749.348 603.512 757.826 600 766.667 600ZM313.333 166.667H220C205.855 166.667 192.29 172.286 182.288 182.288C172.286 192.29 166.667 205.855 166.667 220V313.333C166.667 320.337 168.046 327.272 170.726 333.743C173.407 340.214 177.335 346.093 182.288 351.046C187.24 355.998 193.12 359.927 199.59 362.607C206.061 365.287 212.996 366.667 220 366.667H313.333C320.337 366.667 327.272 365.287 333.743 362.607C340.214 359.927 346.093 355.998 351.046 351.046C355.998 346.093 359.927 340.214 362.607 333.743C365.287 327.272 366.667 320.337 366.667 313.333V220C366.667 205.855 361.048 192.29 351.046 182.288C341.044 172.286 327.478 166.667 313.333 166.667ZM220 433.333H313.333C327.478 433.333 341.044 438.952 351.046 448.954C361.048 458.956 366.667 472.522 366.667 486.667V580C366.667 594.145 361.048 607.71 351.046 617.712C341.044 627.714 327.478 633.333 313.333 633.333H220C205.855 633.333 192.29 627.714 182.288 617.712C172.286 607.71 166.667 594.145 166.667 580V486.667C166.667 472.522 172.286 458.956 182.288 448.954C192.29 438.952 205.855 433.333 220 433.333ZM580 166.667H486.667C472.522 166.667 458.956 172.286 448.954 182.288C438.952 192.29 433.333 205.855 433.333 220V313.333C433.333 327.478 438.952 341.044 448.954 351.046C458.956 361.048 472.522 366.667 486.667 366.667H580C594.145 366.667 607.71 361.048 617.712 351.046C627.714 341.044 633.333 327.478 633.333 313.333V220C633.333 205.855 627.714 192.29 617.712 182.288C607.71 172.286 594.145 166.667 580 166.667ZM486.667 433.333H580C594.145 433.333 607.71 438.952 617.712 448.954C627.714 458.956 633.333 472.522 633.333 486.667V580C633.333 594.145 627.714 607.71 617.712 617.712C607.71 627.714 594.145 633.333 580 633.333H486.667C472.522 633.333 458.956 627.714 448.954 617.712C438.952 607.71 433.333 594.145 433.333 580V486.667C433.333 472.522 438.952 458.956 448.954 448.954C458.956 438.952 472.522 433.333 486.667 433.333Z" fill="#D62828"/>
</g>
</svg>
